<svg width="66" height="855" viewBox="0 0 66 855" fill="none" xmlns="http://www.w3.org/2000/svg">
<path d="M-155.68 157.318C-168.197 157.318 -173.412 178.179 -173.412 190.696C-173.412 219.901 -165.068 244.935 -165.068 267.882C-165.068 311.69 -169.24 320.035 -169.24 334.638C-169.24 357.585 -154.637 419.125 -154.637 436.858C-154.637 498.398 -175.498 531.776 -175.498 574.541C-175.498 581.843 -172.369 589.144 -167.154 598.532C-145.249 643.383 -145.249 649.641 -124.388 649.641C-100.398 649.641 -81.6229 630.866 -81.6229 607.919C-81.6229 602.704 -84.7521 587.058 -84.7521 579.757C-84.7521 575.584 -83.709 563.068 -83.709 545.336C-83.709 527.604 -85.7951 490.053 -85.7951 475.451C-85.7951 455.633 -85.7951 449.374 -77.4507 422.255C-73.2784 409.738 -71.1923 397.221 -71.1923 384.705C-71.1923 342.982 -84.7521 306.475 -84.7521 242.849C-84.7521 215.729 -75.3645 194.868 -75.3645 170.878C-75.3645 156.275 -80.5798 140.629 -97.2688 140.629C-108.742 140.629 -112.915 196.954 -125.431 196.954C-135.862 196.954 -138.991 157.318 -155.68 157.318ZM-155.68 0.85902C-95.1827 0.85902 -1.30739 42.5814 32.0705 82.2176C55.0178 110.38 65.4484 141.672 65.4484 215.729C65.4484 322.121 47.7164 379.489 47.7164 449.374V487.967C47.7164 625.651 18.5107 599.575 18.5107 675.718C18.5107 750.818 5.99402 795.67 -8.6088 795.67C-22.1686 795.67 -24.2547 758.12 -35.7283 758.12C-63.8909 758.12 -36.7714 854.081 -65.977 854.081C-73.2784 854.081 -81.6229 851.995 -83.709 819.66C-86.8382 787.325 -85.7951 772.722 -98.3118 772.722C-109.785 772.722 -111.872 786.282 -120.216 786.282C-128.561 786.282 -135.862 765.421 -151.508 765.421C-172.369 765.421 -169.24 823.832 -185.929 823.832C-209.919 820.703 -205.747 793.584 -222.436 745.603C-240.168 694.493 -249.555 689.278 -256.857 689.278C-269.373 689.278 -272.503 702.837 -272.503 714.311C-272.503 721.612 -271.46 726.828 -271.46 729.957C-271.46 738.301 -276.675 741.431 -283.976 741.431C-297.536 741.431 -314.225 651.728 -314.225 606.876C-314.225 571.412 -296.493 509.872 -296.493 485.881C-296.493 458.762 -327.785 411.824 -327.785 366.973C-327.785 340.896 -302.751 245.978 -302.751 221.987C-302.751 206.342 -310.053 199.04 -310.053 176.093C-310.053 152.103 -294.407 107.251 -292.321 99.9496C-276.675 35.2799 -171.326 0.85902 -155.68 0.85902Z" fill="#FB0000"/>
</svg>
